<?xml version="1.0" encoding="UTF-8"?><svg id="Capa_2" xmlns="http://www.w3.org/2000/svg" xmlns:xlink="http://www.w3.org/1999/xlink" viewBox="0 0 252.37 174.65"><defs><style>.cls-1{fill:url(#Degradado_sin_nombre_209);}.cls-2{fill:url(#Degradado_sin_nombre_202);}.cls-3{fill:#2e2d2c;}.cls-4{fill:#878787;}.cls-5{clip-path:url(#clippath);}.cls-6{fill:none;}</style><clipPath id="clippath"><rect class="cls-6" width="252.37" height="174.65"/></clipPath><linearGradient id="Degradado_sin_nombre_209" x1="120.85" y1="81.02" x2="120.85" y2="19.26" gradientUnits="userSpaceOnUse"><stop offset="0" stop-color="#790726"/><stop offset=".17" stop-color="#7e0628"/><stop offset=".37" stop-color="#8d052e"/><stop offset=".6" stop-color="#a70437"/><stop offset=".84" stop-color="#ca0145"/><stop offset="1" stop-color="#e50050"/></linearGradient><linearGradient id="Degradado_sin_nombre_202" x1="101.19" y1="68.92" x2="161.69" y2="68.92" gradientUnits="userSpaceOnUse"><stop offset="0" stop-color="#790726"/><stop offset=".08" stop-color="#8f052e"/><stop offset=".21" stop-color="#ae033a"/><stop offset=".35" stop-color="#c60144"/><stop offset=".49" stop-color="#d7004a"/><stop offset=".65" stop-color="#e1004e"/><stop offset=".84" stop-color="#e50050"/></linearGradient></defs><g id="Marca_principal"><g id="Marca_principal-2"><g class="cls-5"><g><g><path class="cls-4" d="m91.62,152.99h-.04c-.34.72-.98,1.19-1.97,1.19-1.65,0-2.66-1.25-2.66-3.38s1.01-3.38,2.66-3.38c.98,0,1.65.47,1.97,1.19h.04v-3.91h.72v9.33h-.72v-1.03Zm0-.93v-2.56c0-.85-.84-1.44-1.84-1.44-1.29,0-2.06.89-2.06,2.28v.91c0,1.39.77,2.28,2.06,2.28,1,0,1.84-.57,1.84-1.48Z"/><path class="cls-4" d="m94.17,150.8c0-2.12,1.1-3.38,2.81-3.38s2.72,1.29,2.72,3.18v.34h-4.78v.32c0,1.35.78,2.29,2.11,2.29.92,0,1.6-.45,1.95-1.3l.53.35c-.4.95-1.3,1.58-2.52,1.58-1.73,0-2.82-1.26-2.82-3.38Zm.76-.48v.06h4v-.1c0-1.36-.78-2.26-1.94-2.26-1.25,0-2.06.93-2.06,2.29Z"/><path class="cls-4" d="m100.88,152.94l.53-.42c.53.69,1.15,1.03,2,1.03.98,0,1.55-.44,1.55-1.22,0-.68-.39-1.07-1.32-1.21l-.53-.09c-1.17-.18-1.98-.64-1.98-1.8s.95-1.82,2.19-1.82c1.07,0,1.73.42,2.21,1l-.48.44c-.34-.4-.87-.82-1.77-.82s-1.46.43-1.46,1.16.47,1.03,1.39,1.19l.52.08c1.31.2,1.93.77,1.93,1.8,0,1.2-.87,1.92-2.29,1.92-1.12,0-1.9-.44-2.48-1.24Z"/><path class="cls-4" d="m107.42,145.36v-.13c0-.26.15-.45.49-.45s.49.19.49.45v.13c0,.27-.15.45-.49.45s-.49-.19-.49-.45Zm.14,2.21h.72v6.46h-.72v-6.46Z"/><path class="cls-4" d="m112.81,156.7c-1.97,0-2.79-.61-2.79-1.61,0-.73.42-1.16,1.11-1.36v-.1c-.4-.16-.61-.45-.61-.88,0-.63.48-.95,1.1-1.11v-.05c-.74-.34-1.2-1.03-1.2-1.97,0-1.3.92-2.19,2.35-2.19.5,0,.95.11,1.3.32v-.32c0-.39.18-.66.59-.66h1.11v.63h-1.31v.62c.43.39.68.95.68,1.6,0,1.31-.93,2.21-2.36,2.21-.23,0-.45-.04-.67-.08-.55.15-.96.4-.96.83,0,.38.33.58,1.03.58h1.5c1.55,0,2.22.62,2.22,1.63,0,1.31-1.08,1.92-3.1,1.92Zm.88-2.87h-2.09c-.55.19-.89.55-.89,1.11,0,.67.55,1.17,1.68,1.17h.81c1.25,0,2.03-.4,2.03-1.27,0-.62-.38-1.01-1.53-1.01Zm.68-4.01v-.4c0-.88-.61-1.41-1.59-1.41s-1.59.53-1.59,1.41v.4c0,.91.61,1.42,1.59,1.42s1.59-.52,1.59-1.42Z"/><path class="cls-4" d="m117.29,154.03v-6.46h.72v1.02h.04c.29-.67.87-1.17,1.9-1.17,1.37,0,2.18.88,2.18,2.46v4.15h-.72v-4.02c0-1.31-.58-1.94-1.65-1.94-.91,0-1.75.47-1.75,1.42v4.54h-.72Z"/><path class="cls-4" d="m131.81,154.03c-.55,0-.78-.32-.82-.79v-.23h-.06c-.29.72-.95,1.17-1.95,1.17-1.35,0-2.13-.71-2.13-1.9s.76-1.87,2.62-1.87h1.49v-.76c0-1.06-.55-1.6-1.65-1.6-.86,0-1.41.38-1.77,1.05l-.45-.38c.35-.74,1.07-1.3,2.24-1.3,1.5,0,2.35.79,2.35,2.16v3.82h.87v.63h-.73Zm-.86-1.88v-1.2h-1.51c-1.29,0-1.84.44-1.84,1.16v.3c0,.74.59,1.15,1.48,1.15,1.05,0,1.88-.54,1.88-1.41Z"/><path class="cls-4" d="m136.22,156.7c-1.97,0-2.79-.61-2.79-1.61,0-.73.42-1.16,1.11-1.36v-.1c-.4-.16-.61-.45-.61-.88,0-.63.48-.95,1.1-1.11v-.05c-.74-.34-1.2-1.03-1.2-1.97,0-1.3.92-2.19,2.35-2.19.5,0,.95.11,1.3.32v-.32c0-.39.18-.66.59-.66h1.11v.63h-1.31v.62c.43.39.68.95.68,1.6,0,1.31-.93,2.21-2.36,2.21-.23,0-.45-.04-.67-.08-.55.15-.96.4-.96.83,0,.38.33.58,1.03.58h1.5c1.55,0,2.22.62,2.22,1.63,0,1.31-1.08,1.92-3.1,1.92Zm.88-2.87h-2.09c-.55.19-.89.55-.89,1.11,0,.67.55,1.17,1.68,1.17h.81c1.25,0,2.03-.4,2.03-1.27,0-.62-.38-1.01-1.53-1.01Zm.68-4.01v-.4c0-.88-.61-1.41-1.59-1.41s-1.59.53-1.59,1.41v.4c0,.91.61,1.42,1.59,1.42s1.59-.52,1.59-1.42Z"/><path class="cls-4" d="m140.1,150.8c0-2.12,1.1-3.38,2.81-3.38s2.72,1.29,2.72,3.18v.34h-4.78v.32c0,1.35.78,2.29,2.11,2.29.92,0,1.6-.45,1.95-1.3l.53.35c-.4.95-1.3,1.58-2.52,1.58-1.73,0-2.82-1.26-2.82-3.38Zm.76-.48v.06h4v-.1c0-1.36-.78-2.26-1.94-2.26-1.25,0-2.06.93-2.06,2.29Z"/><path class="cls-4" d="m147.47,154.03v-6.46h.72v1.02h.04c.29-.67.87-1.17,1.9-1.17,1.37,0,2.18.88,2.18,2.46v4.15h-.72v-4.02c0-1.31-.58-1.94-1.65-1.94-.91,0-1.75.47-1.75,1.42v4.54h-.72Z"/><path class="cls-4" d="m154.06,150.8c0-2.13,1.02-3.38,2.79-3.38,1.19,0,1.92.58,2.29,1.42l-.61.3c-.3-.69-.84-1.08-1.69-1.08-1.31,0-2.02.92-2.02,2.28v.91c0,1.36.71,2.28,2.02,2.28.88,0,1.49-.4,1.85-1.12l.53.35c-.42.86-1.2,1.41-2.38,1.41-1.77,0-2.79-1.25-2.79-3.38Z"/><path class="cls-4" d="m164.69,147.57h.73l-2.99,8.27c-.2.54-.42.71-1.07.71h-.73v-.63h1.08l.62-1.7-2.4-6.65h.76l1.98,5.69h.05l1.97-5.69Z"/></g><g><path class="cls-3" d="m18.58,117.01c0-5.49,4.95-7.27,12.56-7.27,2.9,0,5.68.19,9.05.73.19,1.28.19,3.21,0,4.48-2.86-.35-5.41-.5-8.12-.5-4.45,0-7.89.27-7.89,3.71v10.21c0,3.4,3.44,3.71,7.89,3.71,2.67,0,5.64-.39,8.2-.85.35,1.35.5,2.98.5,4.48-3.48.77-7,1.16-9.63,1.16-7.62,0-12.56-1.74-12.56-7.23v-12.64Z"/><path class="cls-3" d="m69.49,120.52c0,3.36-1.93,5.22-5.26,6.07,2.32,3.13,4.17,6.65,5.68,9.82-1.47.15-4.48.15-5.99,0-1.43-2.98-3.21-6.3-5.41-9.28h-6.65v9.28c-1.7.15-3.94.15-5.64,0v-26.13h12.56c6.61,0,10.71,1.78,10.71,6.77v3.48Zm-5.6-2.32c0-2.9-2.51-3.21-5.49-3.21h-6.53v7.5h6.53c2.98,0,5.49-.27,5.49-3.09v-1.2Z"/><path class="cls-3" d="m75.44,136.41v-26.13h20.1c.19,1.31.19,3.25,0,4.56h-14.46v6.15h14.07c.19,1.31.19,3.21,0,4.48h-14.07v6.38h14.46c.19,1.28.19,3.29,0,4.56h-20.1Z"/><path class="cls-3" d="m121.67,130.65c0,4.52-4.29,6.22-11.4,6.22-2.9,0-6.57-.16-9.93-.62-.23-1.28-.23-3.36,0-4.68,3.83.43,6.96.62,9.86.62,3.25,0,5.92-.31,5.92-2.4v-1.35c0-1.43-.62-1.55-3.75-2.32l-6.73-1.62c-3.21-.77-5.37-2.17-5.37-6.03v-2.51c0-4.56,4.72-6.22,11.56-6.22,3.17,0,5.92.15,9.59.81.23,1.28.23,3.25,0,4.52-3.79-.5-6.34-.66-9.43-.66-3.56,0-6.15.27-6.15,2.36v1.04c0,1.51.93,1.86,4.64,2.78l5.88,1.43c3.36.85,5.33,1.89,5.33,5.8v2.82Z"/><path class="cls-3" d="m126.66,117.01c0-5.49,4.95-7.27,12.56-7.27,2.9,0,5.68.19,9.05.73.19,1.28.19,3.21,0,4.48-2.86-.35-5.41-.5-8.12-.5-4.45,0-7.89.27-7.89,3.71v10.21c0,3.4,3.44,3.71,7.89,3.71,2.67,0,5.64-.39,8.2-.85.35,1.35.5,2.98.5,4.48-3.48.77-7,1.16-9.63,1.16-7.62,0-12.56-1.74-12.56-7.23v-12.64Z"/><path class="cls-3" d="m154.3,136.41v-26.13h20.1c.19,1.31.19,3.25,0,4.56h-14.46v6.15h14.07c.19,1.31.19,3.21,0,4.48h-14.07v6.38h14.46c.19,1.28.19,3.29,0,4.56h-20.1Z"/><path class="cls-3" d="m185.85,118.28v18.13c-1.78.19-3.83.19-5.64,0v-26.13c1.93-.15,4.21-.15,6.15,0l13.03,18.56v-18.56c2.01-.15,3.79-.15,5.64,0v26.13c-2.09.15-4.21.15-6.3,0l-12.87-18.13Z"/><path class="cls-3" d="m218.74,114.84h-9.32c-.19-1.28-.19-3.25,0-4.56h24.24c.15,1.31.15,3.29,0,4.56h-9.32v21.57c-1.59.15-3.98.15-5.61,0v-21.57Z"/></g><g><path class="cls-1" d="m150.61,28.05c-2.22-.51-5.38-1.05-9.17-1.01-11.9.1-25.51,5.75-33.87,17.6,0,0-7.54,10.71-7.52,23.78,0,5.41,1.18,9.89,1.53,11.17.17.61.32,1.11.42,1.44-6.96-6.76-10.91-16.04-10.91-25.8,0-17.39,12.41-32.26,29.5-35.37.61-.11,3.1-.61,6.46-.59,11.48.06,19.9,5.87,23.56,8.79Z"/><path class="cls-2" d="m161.69,64.92c-4.31,15.35-18.51,26.26-34.64,26.26-8.53,0-16.78-3.04-23.26-8.54t-.03-.02c-1.22-3.27-2.59-8.18-2.57-14.21.02-10.51,4.2-18.26,6.39-21.74,1.34,16.11,14.68,28.47,31.04,28.47,8.89,0,17.17-3.7,23.07-10.21Z"/></g></g></g></g></g></svg>