<svg width="81" height="84" viewBox="0 0 81 84" fill="none" xmlns="http://www.w3.org/2000/svg">
<path d="M68.2878 10.6441C65.7408 10.0556 62.1153 9.43236 57.767 9.47853C44.114 9.59393 28.4992 16.1144 18.9076 29.79C18.9076 29.79 10.2569 42.15 10.2799 57.2335C10.2799 63.477 11.6337 68.6472 12.0353 70.1244C12.2303 70.8284 12.4024 71.4054 12.5171 71.7862C4.53187 63.9732 0 53.2636 0 41.9999C0 21.9308 14.2381 4.75842 33.8456 1.18084C34.5455 1.05389 37.3908 0.47686 41.2572 0.499941C54.4283 0.569185 64.0887 7.27427 68.2878 10.6441Z" fill="white"/>
<path d="M81 53.1944C76.0551 70.9092 59.7633 83.5 41.2572 83.5C31.4707 83.5 22.0054 79.9917 14.5708 73.6444C14.5708 73.6444 14.5594 73.6367 14.5364 73.6213C13.1367 69.8475 11.5649 64.1811 11.5878 57.2221C11.6108 45.0929 16.4065 36.1489 18.9191 32.1328C20.4565 50.7247 35.7616 64.9889 54.5316 64.9889C64.7312 64.9889 74.2309 60.7189 81 53.2059V53.1944Z" fill="white"/>
</svg>
